HIERARCHY
ROOT hip
{
	OFFSET 0.000000 0.000000 0.000000 
	CHANNELS 6 Xposition Yposition Zposition Xrotation Zrotation Yrotation
	JOINT abdomen
	{
		OFFSET 0.000000 3.402643 0.000000 
		CHANNELS 3 Xrotation Zrotation Yrotation
		JOINT chest
		{
			OFFSET 0.000000 8.438565 -0.680529 
			CHANNELS 3 Xrotation Zrotation Yrotation
			JOINT neck
			{
				OFFSET 0.000000 10.207942 -0.272212 
				CHANNELS 3 Xrotation Zrotation Yrotation
				JOINT head
				{
					OFFSET 0.000000 3.130431 0.000000 
					CHANNELS 3 Xrotation Zrotation Yrotation
					End Site
					{
						OFFSET 0.000000 3.130435 0.000000 
					}
				}
			}
			JOINT lCollar
			{
				OFFSET 3.470700 6.669187 -0.816635 
				CHANNELS 3 Yrotation Zrotation Xrotation
				JOINT lShldr
				{
					OFFSET 3.198488 0.000000 0.000000 
					CHANNELS 3 Zrotation Yrotation Xrotation
					JOINT lForeArm
					{
						OFFSET 10.139888 0.000000 0.000000 
						CHANNELS 3 Yrotation Zrotation Xrotation
						JOINT lHand
						{
							OFFSET 8.370511 0.000000 0.000000 
							CHANNELS 3 Zrotation Yrotation Xrotation
							End Site
							{
								OFFSET 4.083176 0.000000 0.000000 
							}
						}
					}
				}
			}
			JOINT rCollar
			{
				OFFSET -3.470700 6.669187 -0.816635 
				CHANNELS 3 Yrotation Zrotation Xrotation
				JOINT rShldr
				{
					OFFSET -3.198488 0.000000 0.000000 
					CHANNELS 3 Zrotation Yrotation Xrotation
					JOINT rForeArm
					{
						OFFSET -10.139888 0.000000 0.000000 
						CHANNELS 3 Yrotation Zrotation Xrotation
						JOINT rHand
						{
							OFFSET -8.370511 0.000000 0.000000 
							CHANNELS 3 Zrotation Yrotation Xrotation
							End Site
							{
								OFFSET -4.083176 0.000000 0.000000 
							}
						}
					}
				}
			}
		}
	}
	JOINT lThigh
	{
		OFFSET 5.308129 -1.633274 1.361059 
		CHANNELS 3 Xrotation Zrotation Yrotation
		JOINT lShin
		{
			OFFSET -2.041588 -20.007561 0.000000 
			CHANNELS 3 Xrotation Zrotation Yrotation
			JOINT lFoot
			{
				OFFSET 0.000000 -19.190928 -1.224953 
				CHANNELS 3 Xrotation Yrotation Zrotation
				End Site
				{
					OFFSET 0.000000 -2.449906 4.627600 
				}
			}
		}
	}
	JOINT rThigh
	{
		OFFSET -5.308129 -1.633274 1.361059 
		CHANNELS 3 Xrotation Zrotation Yrotation
		JOINT rShin
		{
			OFFSET 2.041588 -20.007561 0.000000 
			CHANNELS 3 Xrotation Zrotation Yrotation
			JOINT rFoot
			{
				OFFSET 0.000000 -19.190928 -1.224953 
				CHANNELS 3 Xrotation Yrotation Zrotation
				End Site
				{
					OFFSET 0.000000 -2.449906 4.627600 
				}
			}
		}
	}
}
MOTION
Frames: 18
Frame Time: 0.033333
114.595871 46.345253 -33.648327 10.830078 25.781248 -69.843750 10.370376 -8.712459 -6.345483 -40.205078 12.216798 8.056641 -24.282179 -7.835668 -5.452122 27.519533 10.009765 -15.320567 2.000000 -2.000000 0.000000 -22.705078 -20.283201 -20.126953 -49.319626 -0.406072 2.629416 29.493153 -1.953696 7.275390 -2.000000 2.000000 0.000000 44.189453 -18.867188 -35.937496 64.060143 0.254296 2.874555 -32.305103 2.173497 13.674639 -60.158066 14.507565 12.515718 28.315796 -3.458174 -2.133321 -23.873310 0.635915 -0.761223 -7.153337 -0.857981 -9.669792 15.460834 3.728474 1.222642 -32.386581 0.263013 -1.292665 
113.221695 46.477074 -32.306713 10.439453 25.751955 -68.062164 10.370376 -8.712459 -6.345483 -42.763676 12.470703 7.529296 -22.090193 -8.532276 -5.354532 27.910158 9.804688 -15.779588 2.000000 -2.000000 0.000000 -24.267578 -18.398438 -18.173826 -46.722824 -0.437669 2.592201 27.866394 -2.154799 6.286576 -2.000000 2.000000 0.000000 42.861324 -19.619141 -35.126949 62.878723 0.264633 2.865398 -31.982193 2.163853 13.134681 -58.667549 11.756225 12.114952 29.353794 -3.403919 -2.204449 -21.096611 0.828012 -1.125723 -3.200098 -2.047884 -9.612913 12.012677 3.815336 0.984599 -27.504108 -0.810283 1.054478 
111.786827 46.773964 -30.981544 9.414062 25.556641 -67.597649 10.370376 -8.712459 -6.345483 -44.082035 11.728516 8.496094 -20.239288 -8.549845 -5.669319 28.330080 10.039063 -16.463142 2.000000 -2.000000 0.000000 -24.160156 -17.187500 -17.050779 -43.842823 -0.469265 2.554986 26.118860 -2.239271 5.227165 -2.000000 2.000000 0.000000 43.085941 -19.013672 -35.462170 61.258274 0.276148 2.836750 -31.454165 2.160296 12.429075 -55.216614 11.196322 18.733749 30.222040 -3.370108 -2.258363 -19.115782 0.711295 -0.922744 0.214555 -3.603639 -9.497438 9.921692 3.844842 0.865386 -21.867912 -2.101939 3.863767 
110.442841 47.060986 -29.641624 8.222656 25.166016 -67.046623 10.370376 -8.712459 -6.345483 -44.902344 10.449220 9.298648 -18.470034 -8.377706 -6.101423 28.486328 10.107423 -17.176022 2.000000 -2.000000 0.000000 -23.330078 -15.839844 -16.279301 -41.157913 -0.500272 2.527517 24.584158 -2.237711 4.333228 -2.000000 2.000000 0.000000 43.837891 -18.183594 -36.272579 59.042545 0.298588 2.789200 -30.622784 2.145880 11.455951 -51.779125 9.633259 22.550350 30.627367 -3.351164 -2.263461 -18.014027 0.569611 -0.640901 1.530984 -5.403324 -9.687275 11.879627 3.814670 0.974749 -17.260273 -2.899982 5.825737 
109.155106 47.357872 -28.275843 7.294922 24.492188 -65.845558 10.370376 -8.712459 -6.345483 -44.150394 8.955079 9.609376 -17.834856 -8.260541 -6.505477 28.388672 10.019530 -17.849865 2.000000 -2.000000 0.000000 -22.929686 -15.693358 -18.352249 -39.068928 -0.531867 2.490301 23.371645 -2.216936 3.647226 -2.000000 2.000000 0.000000 44.794926 -16.464844 -38.342613 56.221565 0.331364 2.732438 -29.486982 2.080875 10.274283 -48.538784 6.822431 22.043499 30.134232 -3.360576 -2.259413 -17.964718 0.592034 -0.550460 2.038580 -7.132377 -10.389209 15.581627 3.727271 1.230901 -13.282469 -3.550028 7.296804 
107.973900 47.683239 -26.993216 7.011719 23.974609 -63.857418 10.370376 -8.712459 -6.345483 -45.234379 8.613282 8.613282 -15.142610 -8.568121 -6.646980 28.183594 9.736328 -18.357725 2.000000 -2.000000 0.000000 -24.414063 -14.130858 -18.205507 -38.541805 -0.532455 2.480556 22.940929 -2.187496 3.494992 -2.000000 2.000000 0.000000 44.150391 -15.957031 -37.968750 54.815533 0.331953 2.722692 -28.968510 2.066102 9.705555 -45.722595 4.257865 21.346907 29.107115 -3.412616 -2.189029 -17.946020 0.516548 -0.427031 1.805482 -8.355894 -10.829242 19.561724 3.638706 1.503343 -8.179296 -4.468091 9.520844 
106.839546 47.954720 -25.773329 6.474609 22.968748 -61.611332 10.370376 -8.712459 -6.345483 -45.156254 7.441407 8.320313 -12.680265 -8.453791 -7.070337 27.783205 9.960938 -19.177999 2.000000 -2.000000 0.000000 -25.390625 -13.945312 -17.978512 -38.258812 -0.542790 2.471400 22.685863 -2.144277 3.411287 -2.000000 2.000000 0.000000 44.404297 -15.742189 -38.212891 53.439224 0.343467 2.694043 -28.450056 2.051084 9.136957 -41.998528 1.951675 22.126047 27.894413 -3.443530 -2.099824 -18.601162 0.413038 -0.206331 1.833176 -9.642032 -12.726167 23.650379 3.502882 1.799797 -2.347185 -5.584852 12.124194 
105.773598 48.178432 -24.686966 6.621094 21.308596 -60.445671 10.370376 -8.712459 -6.345483 -44.394531 7.988281 8.701172 -10.693593 -8.555204 -7.351341 27.294926 10.244140 -19.920137 2.000000 -2.000000 0.000000 -26.757813 -13.887633 -17.659187 -38.366028 -0.532455 2.480556 22.616631 -2.106720 3.483769 -2.000000 2.000000 0.000000 44.765625 -15.527344 -37.343754 52.023636 0.354391 2.675139 -27.823662 2.019175 8.574152 -38.358860 1.103440 20.349703 27.035191 -3.472610 -2.035123 -19.812216 0.447255 -0.338737 1.502497 -9.918429 -12.387223 27.577612 3.385889 2.024965 2.467516 -6.155761 13.566811 
104.811806 48.382862 -23.689886 7.011719 19.755859 -58.769535 10.370376 -8.712459 -6.345483 -44.169922 8.867188 8.605021 -7.751441 -9.161587 -7.576607 26.503906 10.859375 -20.945427 2.000000 -2.000000 0.000000 -28.388670 -13.144530 -15.929955 -39.010330 -0.531867 2.490301 22.821333 -2.082691 3.697109 -2.000000 2.000000 0.000000 44.785156 -15.527344 -35.871761 51.847858 0.354391 2.675139 -27.784595 2.020219 8.498090 -35.209034 0.495736 19.034885 26.442005 -3.486735 -2.015021 -20.895844 0.489378 -0.343558 0.448151 -10.398002 -12.842886 31.246746 3.258481 2.234991 7.365422 -6.403442 14.171748 
103.895714 48.527283 -22.767679 7.324219 17.890625 -57.243092 10.370376 -8.712459 -6.345483 -43.154301 9.833985 8.632813 -5.708860 -9.719176 -7.738539 26.123047 11.503905 -21.804695 2.000000 -2.000000 0.000000 -29.628906 -13.037110 -15.039063 -39.322620 -0.521531 2.499458 22.780754 -2.015209 3.826209 -2.000000 2.000000 0.000000 44.667969 -14.873048 -35.263672 50.842426 0.365316 2.656235 -27.304482 1.974325 8.113594 -32.184299 0.399744 17.648808 26.431515 -3.492007 -2.015457 -21.823616 0.503908 -0.387685 -0.401318 -10.392692 -11.784357 34.790821 3.102425 2.452427 11.095601 -6.174054 13.691437 
103.061440 48.477139 -21.958918 7.480468 15.957031 -55.478516 10.370376 -8.712459 -6.345483 -41.230473 9.775391 9.130859 -4.884861 -9.313062 -8.325567 25.722656 12.031249 -22.976480 2.000000 -2.000000 0.000000 -29.550779 -13.662108 -14.269882 -39.830437 -0.521531 2.499458 22.827866 -1.936027 4.038376 -2.000000 2.000000 0.000000 45.585938 -14.550782 -34.785152 51.116081 0.365904 2.646490 -27.293688 1.935533 8.241057 -29.573008 0.154035 15.547985 26.855925 -3.486968 -2.035364 -22.946590 0.532195 -0.467750 -0.498913 -10.463257 -11.145645 38.347485 2.956154 2.658163 10.296331 -4.748156 10.410885 
102.256195 48.490299 -21.177385 6.962890 14.052734 -54.394535 10.370376 -8.712459 -6.345483 -38.837894 9.843750 9.824219 -4.112315 -9.182600 -8.642721 25.078125 12.656250 -23.835752 2.000000 -2.000000 0.000000 -29.609375 -13.955080 -14.160156 -40.474751 -0.511196 2.508615 22.983047 -1.883753 4.283711 -2.000000 2.000000 0.000000 45.937500 -14.033203 -33.564449 52.277542 0.354391 2.675139 -27.546827 1.899548 8.735414 -26.681696 -0.216678 12.997424 27.249985 -3.481918 -2.072019 -24.147249 0.599253 -0.602108 -1.953335 -10.899947 -10.203653 42.478401 2.787211 2.872021 11.980268 -3.965703 8.584015 
101.643356 48.437317 -20.561937 6.572266 12.880860 -53.037109 10.370376 -8.712459 -6.345483 -37.832031 9.472655 10.449220 -2.576372 -8.778709 -9.181203 24.130859 12.910156 -25.036882 2.000000 -2.000000 0.000000 -29.550779 -13.681640 -13.127309 -41.695023 -0.500272 2.527516 23.422077 -1.854375 4.718628 -2.000000 2.000000 0.000000 46.552734 -14.394531 -31.027819 53.780804 0.333130 2.703202 -27.838749 1.852696 9.393753 -24.443720 -0.305164 13.146859 27.448914 -3.467094 -2.073024 -24.967493 0.609147 -0.695184 -5.058331 -11.550939 -9.194524 47.381477 2.509613 3.079918 13.383142 -3.186398 6.984700 
101.196251 48.306061 -19.937077 5.214844 11.728516 -51.345669 10.370376 -8.712459 -6.345483 -34.707031 8.378906 10.791016 -2.741905 -9.035418 -9.379934 23.564451 13.408202 -25.761721 2.000000 -2.000000 0.000000 -29.941404 -13.671875 -13.342153 -43.178978 -0.469853 2.545241 23.988489 -1.841407 5.254125 -2.000000 2.000000 0.000000 46.357418 -13.369141 -28.388672 55.137794 0.331953 2.722692 -28.170231 1.824233 9.971952 -21.828564 -1.329394 13.053640 27.555513 -3.472529 -2.111103 -25.747713 0.711738 -0.772883 -7.673606 -13.402293 -9.723526 52.598904 2.206780 3.340869 13.347913 -2.462889 5.313729 
100.812485 48.230843 -19.423391 3.808593 10.390624 -49.687504 10.370376 -8.712459 -6.345483 -31.171877 7.070313 10.917969 -2.760401 -9.159647 -9.152654 22.978516 14.404295 -25.888672 2.000000 -2.000000 0.000000 -29.785154 -13.613280 -13.703469 -44.340649 -0.468677 2.564732 24.615105 -1.895083 5.649850 -2.000000 2.000000 0.000000 46.191406 -12.597656 -25.449219 57.041447 0.320439 2.751342 -28.806562 1.865435 10.778495 -19.316685 -2.305990 11.312483 27.789555 -3.497246 -2.114105 -26.431440 0.686169 -0.878945 -10.515564 -14.888487 -9.775754 57.772854 1.876432 3.546382 12.864935 -2.079120 4.507905 
100.524323 48.132713 -19.096552 2.978516 9.082031 -48.230877 10.370376 -8.712459 -6.345483 -28.281250 7.001954 10.908203 -2.524385 -9.774323 -8.969190 22.529299 14.970702 -26.071701 2.000000 -2.000000 0.000000 -30.546873 -13.251954 -13.605754 -45.385361 -0.458341 2.573888 25.459051 -2.040762 5.965455 -2.000000 2.000000 0.000000 45.283203 -12.285157 -21.523439 59.364597 0.288252 2.798357 -29.541430 1.932791 11.765372 -17.657549 -2.549218 10.124510 28.483564 -3.453198 -2.144107 -26.996981 0.757996 -0.977365 -14.615114 -15.541030 -9.045592 62.875061 1.562492 3.697382 11.970146 -1.924071 4.254370 
100.328171 47.999069 -18.930470 2.226563 7.988281 -47.264263 10.370376 -8.712459 -6.345483 -24.746094 6.943360 10.888672 -3.481481 -10.441573 -8.807266 22.392578 15.263673 -26.022821 2.000000 -2.000000 0.000000 -31.240232 -13.085938 -15.275650 -45.766220 -0.458341 2.573888 26.254391 -2.187008 6.020632 -2.000000 2.000000 0.000000 44.267578 -10.488281 -18.253733 61.404972 0.276737 2.827005 -30.207741 1.991875 12.639179 -16.788532 -2.470910 9.372194 29.796444 -3.413858 -2.200168 -27.318565 0.794256 -1.089291 -19.851725 -16.082151 -7.714417 67.806709 1.240209 3.850637 12.268462 -1.850946 4.083637 
100.226868 47.789879 -18.830179 1.650391 7.167968 -46.092529 10.370376 -8.712459 -6.345483 -21.591797 6.123047 10.527158 -4.537452 -10.353770 -8.682142 21.982422 15.458982 -25.739586 2.000000 -2.000000 0.000000 -31.220703 -12.734375 -16.447466 -45.892960 -0.448005 2.583045 27.085968 -2.214499 5.995906 -2.000000 2.000000 0.000000 43.876953 -8.164063 -15.968184 63.347260 0.264044 2.875144 -30.992779 2.095900 13.468150 -16.582735 -2.509853 8.542642 31.660488 -3.326424 -2.340855 -28.118210 0.867068 -1.220162 -25.269390 -16.969290 -6.982001 72.054390 0.976592 3.929299 10.155060 -1.785486 3.944736 
